<?xml version="1.0" standalone="no"?>
<!DOCTYPE svg PUBLIC "-//W3C//DTD SVG 20010904//EN" "http://www.w3.org/TR/2001/REC-SVG-20010904/DTD/svg10.dtd">
<svg version="1.0" xmlns="http://www.w3.org/2000/svg"
  width="211.000000pt" height="209.000000pt" viewBox="0 0 211.000000 209.000000"
  preserveAspectRatio="xMidYMid meet">

  <g transform="translate(0.000000,209.000000) scale(0.100000,-0.100000)"
    fill="#fff" stroke="none">
    <path
      d="M0 1045 l0 -1045 1055 0 1055 0 0 1045 0 1045 -1055 0 -1055 0 0
-1045z m1235 970 c182 -32 367 -124 503 -250 100 -93 164 -179 222 -300 71
-145 90 -224 97 -388 8 -189 -9 -284 -80 -455 l-30 -72 -886 0 -886 0 -33 75
c-63 143 -76 211 -76 400 0 133 3 184 17 235 27 98 54 168 94 240 210 385 630
589 1058 515z m515 -1710 c0 -27 -176 -143 -290 -191 l-82 -34 -329 0 -330 0
-72 34 c-104 50 -277 168 -277 191 0 3 311 5 690 5 380 0 690 -2 690 -5z" />
    <path
      d="M928 1790 c-256 -46 -481 -227 -581 -466 -63 -151 -75 -368 -28 -516
l22 -68 718 0 718 0 10 23 c49 107 56 356 13 492 -79 253 -284 449 -545 522
-61 17 -262 25 -327 13z m331 -569 c106 -216 190 -395 188 -398 -3 -2 -66 47
-141 109 -76 62 -161 133 -191 157 l-54 43 -148 -123 c-203 -170 -243 -201
-243 -190 0 11 343 718 373 769 11 18 21 32 22 30 1 -2 89 -180 194 -397z" />
  </g>
</svg>